<svg xmlns="http://www.w3.org/2000/svg" viewBox="0 0 560 300" role="img" aria-label="트랙 장력과 하부주행체 부품 수명의 관계" style="max-width:100%;height:auto" fill="none"><defs><marker id="arr" viewBox="0 0 10 10" refX="9" refY="5" markerWidth="6" markerHeight="6" orient="auto-start-reverse"><path d="M0,0 L10,5 L0,10 z" fill="currentColor"/></marker><marker id="arrА" viewBox="0 0 10 10" refX="9" refY="5" markerWidth="6" markerHeight="6" orient="auto-start-reverse"><path d="M0,0 L10,5 L0,10 z" fill="var(--fig-accent, #c4400c)"/></marker></defs><line x1="58" y1="254.0" x2="538" y2="254.0" stroke="currentColor" stroke-width="0.7" opacity="0.18"/><line x1="58" y1="200.82" x2="538" y2="200.82" stroke="currentColor" stroke-width="0.7" opacity="0.18"/><line x1="58" y1="147.64" x2="538" y2="147.64" stroke="currentColor" stroke-width="0.7" opacity="0.18"/><line x1="58" y1="94.45" x2="538" y2="94.45" stroke="currentColor" stroke-width="0.7" opacity="0.18"/><line x1="58" y1="41.27" x2="538" y2="41.27" stroke="currentColor" stroke-width="0.7" opacity="0.18"/><line x1="58" y1="20" x2="58" y2="254" stroke="currentColor" stroke-width="1.4" opacity="1.0"/><line x1="58" y1="254" x2="538" y2="254" stroke="currentColor" stroke-width="1.4" opacity="1.0"/><line x1="58.0" y1="254" x2="58.0" y2="258" stroke="currentColor" stroke-width="1" opacity="1.0"/><text x="58.0" y="271" font-size="11" text-anchor="middle" fill="currentColor" opacity="0.75" font-family="IBM Plex Mono, monospace">이완</text><line x1="154.0" y1="254" x2="154.0" y2="258" stroke="currentColor" stroke-width="1" opacity="1.0"/><text x="154.0" y="271" font-size="11" text-anchor="middle" fill="currentColor" opacity="0.75" font-family="IBM Plex Mono, monospace"></text><line x1="250.0" y1="254" x2="250.0" y2="258" stroke="currentColor" stroke-width="1" opacity="1.0"/><text x="250.0" y="271" font-size="11" text-anchor="middle" fill="currentColor" opacity="0.75" font-family="IBM Plex Mono, monospace"></text><line x1="346.0" y1="254" x2="346.0" y2="258" stroke="currentColor" stroke-width="1" opacity="1.0"/><text x="346.0" y="271" font-size="11" text-anchor="middle" fill="currentColor" opacity="0.75" font-family="IBM Plex Mono, monospace"></text><line x1="442.0" y1="254" x2="442.0" y2="258" stroke="currentColor" stroke-width="1" opacity="1.0"/><text x="442.0" y="271" font-size="11" text-anchor="middle" fill="currentColor" opacity="0.75" font-family="IBM Plex Mono, monospace"></text><line x1="538.0" y1="254" x2="538.0" y2="258" stroke="currentColor" stroke-width="1" opacity="1.0"/><text x="538.0" y="271" font-size="11" text-anchor="middle" fill="currentColor" opacity="0.75" font-family="IBM Plex Mono, monospace">과장력</text><line x1="54" y1="254.0" x2="58" y2="254.0" stroke="currentColor" stroke-width="1" opacity="1.0"/><text x="50" y="258.0" font-size="11" text-anchor="end" fill="currentColor" opacity="0.75" font-family="IBM Plex Mono, monospace">0</text><line x1="54" y1="200.82" x2="58" y2="200.82" stroke="currentColor" stroke-width="1" opacity="1.0"/><text x="50" y="204.82" font-size="11" text-anchor="end" fill="currentColor" opacity="0.75" font-family="IBM Plex Mono, monospace">25</text><line x1="54" y1="147.64" x2="58" y2="147.64" stroke="currentColor" stroke-width="1" opacity="1.0"/><text x="50" y="151.64" font-size="11" text-anchor="end" fill="currentColor" opacity="0.75" font-family="IBM Plex Mono, monospace">50</text><line x1="54" y1="94.45" x2="58" y2="94.45" stroke="currentColor" stroke-width="1" opacity="1.0"/><text x="50" y="98.45" font-size="11" text-anchor="end" fill="currentColor" opacity="0.75" font-family="IBM Plex Mono, monospace">75</text><line x1="54" y1="41.27" x2="58" y2="41.27" stroke="currentColor" stroke-width="1" opacity="1.0"/><text x="50" y="45.27" font-size="11" text-anchor="end" fill="currentColor" opacity="0.75" font-family="IBM Plex Mono, monospace">100</text><text x="538" y="294" font-size="11" text-anchor="end" fill="currentColor" opacity="0.75">트랙 장력 (상대값)</text><text x="4" y="13" font-size="11" text-anchor="start" fill="currentColor" opacity="0.75">부품 수명 (%)</text><rect x="240.4" y="20" width="115.20000000000002" height="234" fill="var(--fig-accent, #c4400c)" opacity="0.09"/><path d="M58.0,190.18 C70.0,181.32 106.0,155.79 130.0,137.0 C154.0,118.21 180.4,92.33 202.0,77.44 C223.6,62.55 243.6,53.68 259.6,47.65 C275.6,41.62 285.2,41.27 298.0,41.27 C310.8,41.27 318.8,39.14 336.4,47.65 C354.0,56.16 381.2,76.38 403.6,92.33 C426.0,108.28 448.4,128.49 470.8,143.38 C493.2,158.27 526.8,175.29 538.0,181.67" fill="none" stroke="var(--fig-accent, #c4400c)" stroke-width="1.8" opacity="1.0" stroke-linejoin="round" stroke-linecap="round"/><circle cx="298.0" cy="41.27" r="4" fill="var(--fig-accent, #c4400c)" stroke="var(--fig-accent, #c4400c)" stroke-width="1.4"/><text x="298.0" y="28.270000000000003" font-size="11" text-anchor="middle" fill="var(--fig-accent, #c4400c)" opacity="1.0" font-weight="600">최적 구간</text><text x="106.0" y="211.45" font-size="10.5" text-anchor="middle" fill="currentColor" opacity="0.8">탈선 · 슈 이탈</text><text x="106.0" y="228.47" font-size="10" text-anchor="middle" fill="currentColor" opacity="0.65">스프로킷 충격 마모</text><text x="490.0" y="202.95" font-size="10.5" text-anchor="middle" fill="currentColor" opacity="0.8">부싱 면압 급증</text><text x="490.0" y="219.96" font-size="10" text-anchor="middle" fill="currentColor" opacity="0.65">수명 30~50% 단축</text><text x="298.0" y="224.22" font-size="11" text-anchor="middle" fill="var(--fig-accent, #c4400c)" opacity="1.0" font-weight="600">처짐량 20~30 mm</text></svg>
