<svg xmlns="http://www.w3.org/2000/svg" viewBox="0 0 600 300" role="img" aria-label="사판식 액시얼 피스톤 펌프의 토출량 가변 원리" style="max-width:100%;height:auto" fill="none"><defs><marker id="arr" viewBox="0 0 10 10" refX="9" refY="5" markerWidth="6" markerHeight="6" orient="auto-start-reverse"><path d="M0,0 L10,5 L0,10 z" fill="currentColor"/></marker><marker id="arrА" viewBox="0 0 10 10" refX="9" refY="5" markerWidth="6" markerHeight="6" orient="auto-start-reverse"><path d="M0,0 L10,5 L0,10 z" fill="var(--fig-accent, #c4400c)"/></marker></defs><rect x="50" y="70" width="150" height="110" rx="3" fill="none" stroke="currentColor" stroke-width="1.4"/><rect x="90" y="82" width="60" height="86" rx="2" fill="var(--fig-fill, rgba(0,0,0,.05))" stroke="currentColor" stroke-width="1.4"/><text x="120" y="196" font-size="10" text-anchor="middle" fill="currentColor" opacity="0.65">실린더 블록</text><line x1="50" y1="125" x2="90" y2="125" stroke="currentColor" stroke-width="2.4" opacity="1.0"/><text x="56" y="115" font-size="10" text-anchor="start" fill="currentColor" opacity="0.65">축</text><line x1="150" y1="96" x2="185.4" y2="96" stroke="currentColor" stroke-width="3" opacity="1.0"/><circle cx="189.4" cy="96" r="3.5" fill="currentColor" stroke="currentColor" stroke-width="1.4"/><line x1="150" y1="125" x2="189.4" y2="125" stroke="currentColor" stroke-width="3" opacity="1.0"/><circle cx="193.4" cy="125" r="3.5" fill="currentColor" stroke="currentColor" stroke-width="1.4"/><line x1="150" y1="154" x2="185.4" y2="154" stroke="currentColor" stroke-width="3" opacity="1.0"/><circle cx="189.4" cy="154" r="3.5" fill="currentColor" stroke="currentColor" stroke-width="1.4"/><line x1="156.6379053945752" y1="73" x2="207.3620946054248" y2="177" stroke="var(--fig-accent, #c4400c)" stroke-width="3" opacity="1.0"/><text x="125" y="60" font-size="11.5" text-anchor="middle" fill="var(--fig-accent, #c4400c)" opacity="1.0" font-weight="600">사판각 α 최대</text><text x="125" y="224" font-size="10.5" text-anchor="middle" fill="currentColor" opacity="0.75">행정 大 → 토출량 최대</text><line x1="182" y1="73" x2="182" y2="177" stroke="currentColor" stroke-width="1" opacity="0.5" stroke-dasharray="3 3"/><text x="190" y="91" font-size="13" text-anchor="start" fill="var(--fig-accent, #c4400c)" opacity="1.0" font-weight="700">α</text><rect x="350" y="70" width="150" height="110" rx="3" fill="none" stroke="currentColor" stroke-width="1.4"/><rect x="390" y="82" width="60" height="86" rx="2" fill="var(--fig-fill, rgba(0,0,0,.05))" stroke="currentColor" stroke-width="1.4"/><text x="420" y="196" font-size="10" text-anchor="middle" fill="currentColor" opacity="0.65">실린더 블록</text><line x1="350" y1="125" x2="390" y2="125" stroke="currentColor" stroke-width="2.4" opacity="1.0"/><text x="356" y="115" font-size="10" text-anchor="start" fill="currentColor" opacity="0.65">축</text><line x1="450" y1="96" x2="470.1" y2="96" stroke="currentColor" stroke-width="3" opacity="1.0"/><circle cx="474.1" cy="96" r="3.5" fill="currentColor" stroke="currentColor" stroke-width="1.4"/><line x1="450" y1="125" x2="474.1" y2="125" stroke="currentColor" stroke-width="3" opacity="1.0"/><circle cx="478.1" cy="125" r="3.5" fill="currentColor" stroke="currentColor" stroke-width="1.4"/><line x1="450" y1="154" x2="470.1" y2="154" stroke="currentColor" stroke-width="3" opacity="1.0"/><circle cx="474.1" cy="154" r="3.5" fill="currentColor" stroke="currentColor" stroke-width="1.4"/><line x1="473.7640091031241" y1="73" x2="490.2359908968759" y2="177" stroke="var(--fig-accent, #c4400c)" stroke-width="3" opacity="1.0"/><text x="425" y="60" font-size="11.5" text-anchor="middle" fill="currentColor" opacity="1.0" font-weight="600">사판각 α 최소</text><text x="425" y="224" font-size="10.5" text-anchor="middle" fill="currentColor" opacity="0.75">행정 小 → 토출량 최소</text><line x1="482" y1="73" x2="482" y2="177" stroke="currentColor" stroke-width="1" opacity="0.5" stroke-dasharray="3 3"/><text x="490" y="91" font-size="13" text-anchor="start" fill="var(--fig-accent, #c4400c)" opacity="1.0" font-weight="700">α</text><text x="300" y="262" font-size="11.5" text-anchor="middle" fill="currentColor" opacity="1.0" font-weight="600">q = A · D · tan α · Z    →  회전수 변경 없이 토출량을 무단 조절</text><text x="300" y="280" font-size="10" text-anchor="middle" fill="currentColor" opacity="0.65">A 피스톤 단면적 · D 피치원 지름 · Z 피스톤 수</text></svg>
