<svg xmlns="http://www.w3.org/2000/svg" viewBox="0 0 570 320" role="img" aria-label="과급 엔진과 자연흡기 엔진의 토크 곡선 비교" style="max-width:100%;height:auto" fill="none"><defs><marker id="arr" viewBox="0 0 10 10" refX="9" refY="5" markerWidth="6" markerHeight="6" orient="auto-start-reverse"><path d="M0,0 L10,5 L0,10 z" fill="currentColor"/></marker><marker id="arrА" viewBox="0 0 10 10" refX="9" refY="5" markerWidth="6" markerHeight="6" orient="auto-start-reverse"><path d="M0,0 L10,5 L0,10 z" fill="var(--fig-accent, #c4400c)"/></marker></defs><line x1="58" y1="259.89" x2="548" y2="259.89" stroke="currentColor" stroke-width="0.7" opacity="0.18"/><line x1="58" y1="203.44" x2="548" y2="203.44" stroke="currentColor" stroke-width="0.7" opacity="0.18"/><line x1="58" y1="147.0" x2="548" y2="147.0" stroke="currentColor" stroke-width="0.7" opacity="0.18"/><line x1="58" y1="90.56" x2="548" y2="90.56" stroke="currentColor" stroke-width="0.7" opacity="0.18"/><line x1="58" y1="34.11" x2="548" y2="34.11" stroke="currentColor" stroke-width="0.7" opacity="0.18"/><line x1="58" y1="20" x2="58" y2="274" stroke="currentColor" stroke-width="1.4" opacity="1.0"/><line x1="58" y1="274" x2="548" y2="274" stroke="currentColor" stroke-width="1.4" opacity="1.0"/><line x1="86.82" y1="274" x2="86.82" y2="278" stroke="currentColor" stroke-width="1" opacity="1.0"/><text x="86.82" y="291" font-size="11" text-anchor="middle" fill="currentColor" opacity="0.75" font-family="IBM Plex Mono, monospace">800</text><line x1="202.12" y1="274" x2="202.12" y2="278" stroke="currentColor" stroke-width="1" opacity="1.0"/><text x="202.12" y="291" font-size="11" text-anchor="middle" fill="currentColor" opacity="0.75" font-family="IBM Plex Mono, monospace">1200</text><line x1="317.41" y1="274" x2="317.41" y2="278" stroke="currentColor" stroke-width="1" opacity="1.0"/><text x="317.41" y="291" font-size="11" text-anchor="middle" fill="currentColor" opacity="0.75" font-family="IBM Plex Mono, monospace">1600</text><line x1="432.71" y1="274" x2="432.71" y2="278" stroke="currentColor" stroke-width="1" opacity="1.0"/><text x="432.71" y="291" font-size="11" text-anchor="middle" fill="currentColor" opacity="0.75" font-family="IBM Plex Mono, monospace">2000</text><line x1="548.0" y1="274" x2="548.0" y2="278" stroke="currentColor" stroke-width="1" opacity="1.0"/><text x="548.0" y="291" font-size="11" text-anchor="middle" fill="currentColor" opacity="0.75" font-family="IBM Plex Mono, monospace">2400</text><line x1="54" y1="259.89" x2="58" y2="259.89" stroke="currentColor" stroke-width="1" opacity="1.0"/><text x="50" y="263.89" font-size="11" text-anchor="end" fill="currentColor" opacity="0.75" font-family="IBM Plex Mono, monospace">60</text><line x1="54" y1="203.44" x2="58" y2="203.44" stroke="currentColor" stroke-width="1" opacity="1.0"/><text x="50" y="207.44" font-size="11" text-anchor="end" fill="currentColor" opacity="0.75" font-family="IBM Plex Mono, monospace">80</text><line x1="54" y1="147.0" x2="58" y2="147.0" stroke="currentColor" stroke-width="1" opacity="1.0"/><text x="50" y="151.0" font-size="11" text-anchor="end" fill="currentColor" opacity="0.75" font-family="IBM Plex Mono, monospace">100</text><line x1="54" y1="90.56" x2="58" y2="90.56" stroke="currentColor" stroke-width="1" opacity="1.0"/><text x="50" y="94.56" font-size="11" text-anchor="end" fill="currentColor" opacity="0.75" font-family="IBM Plex Mono, monospace">120</text><line x1="54" y1="34.11" x2="58" y2="34.11" stroke="currentColor" stroke-width="1" opacity="1.0"/><text x="50" y="38.11" font-size="11" text-anchor="end" fill="currentColor" opacity="0.75" font-family="IBM Plex Mono, monospace">140</text><text x="548" y="314" font-size="11" text-anchor="end" fill="currentColor" opacity="0.75">엔진 회전수 (rpm)</text><text x="4" y="13" font-size="11" text-anchor="start" fill="currentColor" opacity="0.75">토크 (%)</text><path d="M58.0,180.87 C72.41,177.11 110.84,163.94 144.47,158.29 C178.1,152.64 221.33,148.41 259.76,147.0 C298.19,145.59 336.63,147.0 375.06,149.82 C413.49,152.64 461.53,159.23 490.35,163.93 C519.17,168.63 538.39,175.69 548.0,178.04" fill="none" stroke="currentColor" stroke-width="1.8" opacity="1.0" stroke-dasharray="6 4" stroke-linejoin="round" stroke-linecap="round"/><text x="527.82" y="194.98" font-size="11" text-anchor="end" fill="currentColor" opacity="0.8">자연흡기</text><path d="M58.0,220.38 C67.61,218.5 96.44,217.56 115.65,209.09 C134.87,200.62 154.07,188.4 173.29,169.58 C192.5,150.77 206.92,115.48 230.94,96.2 C254.96,76.92 288.59,62.34 317.41,53.87 C346.23,45.4 375.06,43.52 403.88,45.4 C432.7,47.28 466.33,57.63 490.35,65.16 C514.37,72.69 538.39,86.33 548.0,90.56" fill="none" stroke="var(--fig-accent, #c4400c)" stroke-width="1.8" opacity="1.0" stroke-linejoin="round" stroke-linecap="round"/><text x="360.65" y="34.11" font-size="11.5" text-anchor="middle" fill="var(--fig-accent, #c4400c)" opacity="1.0" font-weight="600">과급 (터보)</text><rect x="58.0" y="20" width="129.71" height="254" fill="currentColor" opacity="0.08"/><text x="121.41" y="248.6" font-size="11" text-anchor="middle" fill="currentColor" opacity="1.0" font-weight="600">터보래그</text><text x="121.41" y="261.3" font-size="10" text-anchor="middle" fill="currentColor" opacity="0.7">배기량 부족</text><line x1="202.12" y1="20" x2="202.12" y2="274" stroke="var(--fig-accent, #c4400c)" stroke-width="1.2" opacity="1.0" stroke-dasharray="4 3"/><text x="202.12" y="14" font-size="11" text-anchor="middle" fill="var(--fig-accent, #c4400c)" opacity="1.0" font-weight="600">과급 개시</text><circle cx="403.88" cy="45.4" r="4" fill="var(--fig-accent, #c4400c)" stroke="var(--fig-accent, #c4400c)" stroke-width="1.4"/><text x="403.88" y="33.4" font-size="11" text-anchor="middle" fill="var(--fig-accent, #c4400c)" opacity="1.0" font-weight="600">+36%</text></svg>
