<svg xmlns="http://www.w3.org/2000/svg" viewBox="0 0 560 330" role="img" aria-label="작업반경에 따른 정격하중 감소 곡선" style="max-width:100%;height:auto" fill="none"><defs><marker id="arr" viewBox="0 0 10 10" refX="9" refY="5" markerWidth="6" markerHeight="6" orient="auto-start-reverse"><path d="M0,0 L10,5 L0,10 z" fill="currentColor"/></marker><marker id="arrА" viewBox="0 0 10 10" refX="9" refY="5" markerWidth="6" markerHeight="6" orient="auto-start-reverse"><path d="M0,0 L10,5 L0,10 z" fill="var(--fig-accent, #c4400c)"/></marker></defs><line x1="58" y1="284.0" x2="538" y2="284.0" stroke="currentColor" stroke-width="0.7" opacity="0.18"/><line x1="58" y1="233.23" x2="538" y2="233.23" stroke="currentColor" stroke-width="0.7" opacity="0.18"/><line x1="58" y1="182.46" x2="538" y2="182.46" stroke="currentColor" stroke-width="0.7" opacity="0.18"/><line x1="58" y1="131.69" x2="538" y2="131.69" stroke="currentColor" stroke-width="0.7" opacity="0.18"/><line x1="58" y1="80.92" x2="538" y2="80.92" stroke="currentColor" stroke-width="0.7" opacity="0.18"/><line x1="58" y1="30.15" x2="538" y2="30.15" stroke="currentColor" stroke-width="0.7" opacity="0.18"/><line x1="58" y1="20" x2="58" y2="284" stroke="currentColor" stroke-width="1.4" opacity="1.0"/><line x1="58" y1="284" x2="538" y2="284" stroke="currentColor" stroke-width="1.4" opacity="1.0"/><line x1="58.0" y1="284" x2="58.0" y2="288" stroke="currentColor" stroke-width="1" opacity="1.0"/><text x="58.0" y="301" font-size="11" text-anchor="middle" fill="currentColor" opacity="0.75" font-family="IBM Plex Mono, monospace">3</text><line x1="111.33" y1="284" x2="111.33" y2="288" stroke="currentColor" stroke-width="1" opacity="1.0"/><text x="111.33" y="301" font-size="11" text-anchor="middle" fill="currentColor" opacity="0.75" font-family="IBM Plex Mono, monospace">6</text><line x1="182.44" y1="284" x2="182.44" y2="288" stroke="currentColor" stroke-width="1" opacity="1.0"/><text x="182.44" y="301" font-size="11" text-anchor="middle" fill="currentColor" opacity="0.75" font-family="IBM Plex Mono, monospace">10</text><line x1="253.56" y1="284" x2="253.56" y2="288" stroke="currentColor" stroke-width="1" opacity="1.0"/><text x="253.56" y="301" font-size="11" text-anchor="middle" fill="currentColor" opacity="0.75" font-family="IBM Plex Mono, monospace">14</text><line x1="324.67" y1="284" x2="324.67" y2="288" stroke="currentColor" stroke-width="1" opacity="1.0"/><text x="324.67" y="301" font-size="11" text-anchor="middle" fill="currentColor" opacity="0.75" font-family="IBM Plex Mono, monospace">18</text><line x1="395.78" y1="284" x2="395.78" y2="288" stroke="currentColor" stroke-width="1" opacity="1.0"/><text x="395.78" y="301" font-size="11" text-anchor="middle" fill="currentColor" opacity="0.75" font-family="IBM Plex Mono, monospace">22</text><line x1="466.89" y1="284" x2="466.89" y2="288" stroke="currentColor" stroke-width="1" opacity="1.0"/><text x="466.89" y="301" font-size="11" text-anchor="middle" fill="currentColor" opacity="0.75" font-family="IBM Plex Mono, monospace">26</text><line x1="538.0" y1="284" x2="538.0" y2="288" stroke="currentColor" stroke-width="1" opacity="1.0"/><text x="538.0" y="301" font-size="11" text-anchor="middle" fill="currentColor" opacity="0.75" font-family="IBM Plex Mono, monospace">30</text><line x1="54" y1="284.0" x2="58" y2="284.0" stroke="currentColor" stroke-width="1" opacity="1.0"/><text x="50" y="288.0" font-size="11" text-anchor="end" fill="currentColor" opacity="0.75" font-family="IBM Plex Mono, monospace">0</text><line x1="54" y1="233.23" x2="58" y2="233.23" stroke="currentColor" stroke-width="1" opacity="1.0"/><text x="50" y="237.23" font-size="11" text-anchor="end" fill="currentColor" opacity="0.75" font-family="IBM Plex Mono, monospace">10</text><line x1="54" y1="182.46" x2="58" y2="182.46" stroke="currentColor" stroke-width="1" opacity="1.0"/><text x="50" y="186.46" font-size="11" text-anchor="end" fill="currentColor" opacity="0.75" font-family="IBM Plex Mono, monospace">20</text><line x1="54" y1="131.69" x2="58" y2="131.69" stroke="currentColor" stroke-width="1" opacity="1.0"/><text x="50" y="135.69" font-size="11" text-anchor="end" fill="currentColor" opacity="0.75" font-family="IBM Plex Mono, monospace">30</text><line x1="54" y1="80.92" x2="58" y2="80.92" stroke="currentColor" stroke-width="1" opacity="1.0"/><text x="50" y="84.92" font-size="11" text-anchor="end" fill="currentColor" opacity="0.75" font-family="IBM Plex Mono, monospace">40</text><line x1="54" y1="30.15" x2="58" y2="30.15" stroke="currentColor" stroke-width="1" opacity="1.0"/><text x="50" y="34.15" font-size="11" text-anchor="end" fill="currentColor" opacity="0.75" font-family="IBM Plex Mono, monospace">50</text><text x="538" y="324" font-size="11" text-anchor="end" fill="currentColor" opacity="0.75">작업반경 R (m)</text><text x="4" y="13" font-size="11" text-anchor="start" fill="currentColor" opacity="0.75">정격하중 (ton)</text><path d="M58.0,30.15 C66.89,45.38 90.59,94.89 111.33,121.54 C132.07,148.19 158.73,173.16 182.44,190.08 C206.15,207.0 229.85,214.37 253.56,223.08 C277.26,231.8 300.97,237.12 324.67,242.37 C348.37,247.62 372.08,251.17 395.78,254.55 C419.48,257.94 443.19,260.39 466.89,262.68 C490.59,264.97 526.15,267.33 538.0,268.26" fill="none" stroke="var(--fig-accent, #c4400c)" stroke-width="1.8" opacity="1.0" stroke-linejoin="round" stroke-linecap="round"/><line x1="111.33" y1="284.0" x2="111.33" y2="121.54" stroke="currentColor" stroke-width="1" opacity="0.5" stroke-dasharray="4 3"/><line x1="218.0" y1="284.0" x2="218.0" y2="210.38" stroke="currentColor" stroke-width="1" opacity="0.5" stroke-dasharray="4 3"/><circle cx="111.33" cy="121.54" r="4" fill="var(--fig-accent, #c4400c)" stroke="var(--fig-accent, #c4400c)" stroke-width="1.4"/><text x="119.33" y="113.54" font-size="11" text-anchor="start" fill="var(--fig-accent, #c4400c)" opacity="1.0" font-weight="600">6m → 32t</text><circle cx="218.0" cy="210.38" r="4" fill="var(--fig-accent, #c4400c)" stroke="var(--fig-accent, #c4400c)" stroke-width="1.4"/><text x="226.0" y="204.38" font-size="11" text-anchor="start" fill="var(--fig-accent, #c4400c)" opacity="1.0" font-weight="600">12m → 14.5t</text><text x="342.44" y="131.69" font-size="11.5" text-anchor="middle" fill="currentColor" opacity="1.0" font-weight="600">반경 2배 → 하중 1/2 이하</text><text x="342.44" y="157.08" font-size="10.5" text-anchor="middle" fill="currentColor" opacity="0.7">붐을 눕힐수록 위험이 급증</text><text x="342.44" y="182.46" font-size="10.5" text-anchor="middle" fill="var(--fig-accent, #c4400c)" opacity="1.0" font-weight="600">반드시 운전실 정격하중표 확인</text></svg>
