<svg xmlns="http://www.w3.org/2000/svg" viewBox="0 0 560 330" role="img" aria-label="함수비에 따른 건조밀도 변화와 최적함수비" style="max-width:100%;height:auto" fill="none"><defs><marker id="arr" viewBox="0 0 10 10" refX="9" refY="5" markerWidth="6" markerHeight="6" orient="auto-start-reverse"><path d="M0,0 L10,5 L0,10 z" fill="currentColor"/></marker><marker id="arrА" viewBox="0 0 10 10" refX="9" refY="5" markerWidth="6" markerHeight="6" orient="auto-start-reverse"><path d="M0,0 L10,5 L0,10 z" fill="var(--fig-accent, #c4400c)"/></marker></defs><line x1="58" y1="236.0" x2="538" y2="236.0" stroke="currentColor" stroke-width="0.7" opacity="0.18"/><line x1="58" y1="176.0" x2="538" y2="176.0" stroke="currentColor" stroke-width="0.7" opacity="0.18"/><line x1="58" y1="116.0" x2="538" y2="116.0" stroke="currentColor" stroke-width="0.7" opacity="0.18"/><line x1="58" y1="56.0" x2="538" y2="56.0" stroke="currentColor" stroke-width="0.7" opacity="0.18"/><line x1="58" y1="20" x2="58" y2="284" stroke="currentColor" stroke-width="1.4" opacity="1.0"/><line x1="58" y1="284" x2="538" y2="284" stroke="currentColor" stroke-width="1.4" opacity="1.0"/><line x1="58.0" y1="284" x2="58.0" y2="288" stroke="currentColor" stroke-width="1" opacity="1.0"/><text x="58.0" y="301" font-size="11" text-anchor="middle" fill="currentColor" opacity="0.75" font-family="IBM Plex Mono, monospace">6</text><line x1="126.57" y1="284" x2="126.57" y2="288" stroke="currentColor" stroke-width="1" opacity="1.0"/><text x="126.57" y="301" font-size="11" text-anchor="middle" fill="currentColor" opacity="0.75" font-family="IBM Plex Mono, monospace">8</text><line x1="195.14" y1="284" x2="195.14" y2="288" stroke="currentColor" stroke-width="1" opacity="1.0"/><text x="195.14" y="301" font-size="11" text-anchor="middle" fill="currentColor" opacity="0.75" font-family="IBM Plex Mono, monospace">10</text><line x1="263.71" y1="284" x2="263.71" y2="288" stroke="currentColor" stroke-width="1" opacity="1.0"/><text x="263.71" y="301" font-size="11" text-anchor="middle" fill="currentColor" opacity="0.75" font-family="IBM Plex Mono, monospace">12</text><line x1="332.29" y1="284" x2="332.29" y2="288" stroke="currentColor" stroke-width="1" opacity="1.0"/><text x="332.29" y="301" font-size="11" text-anchor="middle" fill="currentColor" opacity="0.75" font-family="IBM Plex Mono, monospace">14</text><line x1="400.86" y1="284" x2="400.86" y2="288" stroke="currentColor" stroke-width="1" opacity="1.0"/><text x="400.86" y="301" font-size="11" text-anchor="middle" fill="currentColor" opacity="0.75" font-family="IBM Plex Mono, monospace">16</text><line x1="469.43" y1="284" x2="469.43" y2="288" stroke="currentColor" stroke-width="1" opacity="1.0"/><text x="469.43" y="301" font-size="11" text-anchor="middle" fill="currentColor" opacity="0.75" font-family="IBM Plex Mono, monospace">18</text><line x1="538.0" y1="284" x2="538.0" y2="288" stroke="currentColor" stroke-width="1" opacity="1.0"/><text x="538.0" y="301" font-size="11" text-anchor="middle" fill="currentColor" opacity="0.75" font-family="IBM Plex Mono, monospace">20</text><line x1="54" y1="236.0" x2="58" y2="236.0" stroke="currentColor" stroke-width="1" opacity="1.0"/><text x="50" y="240.0" font-size="11" text-anchor="end" fill="currentColor" opacity="0.75" font-family="IBM Plex Mono, monospace">1.80</text><line x1="54" y1="176.0" x2="58" y2="176.0" stroke="currentColor" stroke-width="1" opacity="1.0"/><text x="50" y="180.0" font-size="11" text-anchor="end" fill="currentColor" opacity="0.75" font-family="IBM Plex Mono, monospace">1.85</text><line x1="54" y1="116.0" x2="58" y2="116.0" stroke="currentColor" stroke-width="1" opacity="1.0"/><text x="50" y="120.0" font-size="11" text-anchor="end" fill="currentColor" opacity="0.75" font-family="IBM Plex Mono, monospace">1.90</text><line x1="54" y1="56.0" x2="58" y2="56.0" stroke="currentColor" stroke-width="1" opacity="1.0"/><text x="50" y="60.0" font-size="11" text-anchor="end" fill="currentColor" opacity="0.75" font-family="IBM Plex Mono, monospace">1.95</text><text x="538" y="324" font-size="11" text-anchor="end" fill="currentColor" opacity="0.75">함수비 w (%)</text><text x="4" y="13" font-size="11" text-anchor="start" fill="currentColor" opacity="0.75">건조밀도 γd (t/m³)</text><rect x="263.71" y="20" width="137.15000000000003" height="264" fill="var(--fig-accent, #c4400c)" opacity="0.09"/><path d="M58.0,254.0 C69.43,246.0 103.71,223.4 126.57,206.0 C149.43,188.6 172.28,169.8 195.14,149.6 C218.0,129.4 240.85,100.8 263.71,84.8 C286.57,68.8 309.43,52.0 332.29,53.6 C355.15,55.2 378.0,75.6 400.86,94.4 C423.72,113.2 446.57,142.4 469.43,166.4 C492.29,190.4 526.57,226.4 538.0,238.4" fill="none" stroke="currentColor" stroke-width="1.8" opacity="1.0" stroke-linejoin="round" stroke-linecap="round"/><line x1="332.29" y1="20" x2="332.29" y2="284" stroke="var(--fig-accent, #c4400c)" stroke-width="1.2" opacity="1.0" stroke-dasharray="4 3"/><text x="332.29" y="14" font-size="11" text-anchor="middle" fill="var(--fig-accent, #c4400c)" opacity="1.0" font-weight="600">OMC 14%</text><circle cx="332.29" cy="53.6" r="4" fill="var(--fig-accent, #c4400c)" stroke="var(--fig-accent, #c4400c)" stroke-width="1.4"/><text x="342.29" y="41.6" font-size="11" text-anchor="start" fill="var(--fig-accent, #c4400c)" opacity="1.0" font-weight="600">γd,max = 1.95 t/m³</text><text x="332.29" y="257.6" font-size="11" text-anchor="middle" fill="var(--fig-accent, #c4400c)" opacity="1.0" font-weight="600">관리 범위 OMC ± 2%</text><text x="99.14" y="170.0" font-size="10.5" text-anchor="start" fill="currentColor" opacity="0.7">함수비 부족</text><text x="99.14" y="190.4" font-size="10" text-anchor="start" fill="currentColor" opacity="0.6">입자 마찰 과다</text><text x="517.43" y="146.0" font-size="10.5" text-anchor="end" fill="currentColor" opacity="0.7">함수비 과다</text><text x="517.43" y="166.4" font-size="10" text-anchor="end" fill="currentColor" opacity="0.6">간극수압 발생</text></svg>
