<svg xmlns="http://www.w3.org/2000/svg" viewBox="0 0 640 292" role="img" aria-label="DPF 월플로우 구조에 의한 PM 포집 원리" style="max-width:100%;height:auto" fill="none"><defs><marker id="arr" viewBox="0 0 10 10" refX="9" refY="5" markerWidth="6" markerHeight="6" orient="auto-start-reverse"><path d="M0,0 L10,5 L0,10 z" fill="currentColor"/></marker><marker id="arrА" viewBox="0 0 10 10" refX="9" refY="5" markerWidth="6" markerHeight="6" orient="auto-start-reverse"><path d="M0,0 L10,5 L0,10 z" fill="var(--fig-accent, #c4400c)"/></marker></defs><rect x="150" y="60" width="340" height="160" rx="4" fill="none" stroke="currentColor" stroke-width="1.4"/><text x="320" y="44" font-size="11" text-anchor="middle" fill="currentColor" opacity="1.0">월플로우 필터 (코디어라이트 / SiC)</text><line x1="150" y1="95" x2="490" y2="95" stroke="currentColor" stroke-width="1" opacity="0.45"/><line x1="150" y1="125" x2="490" y2="125" stroke="currentColor" stroke-width="1" opacity="0.45"/><line x1="150" y1="155" x2="490" y2="155" stroke="currentColor" stroke-width="1" opacity="0.45"/><line x1="150" y1="185" x2="490" y2="185" stroke="currentColor" stroke-width="1" opacity="0.45"/><line x1="150" y1="215" x2="490" y2="215" stroke="currentColor" stroke-width="1" opacity="0.45"/><rect x="152" y="62.0" width="16" height="27" rx="1" fill="currentColor" stroke="currentColor" stroke-width="0"/><text x="325" y="80.0" font-size="10" text-anchor="middle" fill="currentColor" opacity="0.8">채널 A — 출구 막힘 → 배기가 벽을 통과</text><rect x="472" y="93.6" width="16" height="27" rx="1" fill="currentColor" stroke="currentColor" stroke-width="0"/><rect x="172" y="96.6" width="296" height="7" fill="var(--fig-accent, #c4400c)" opacity="0.55" rx="2"/><text x="325" y="115.6" font-size="10" text-anchor="middle" fill="currentColor" opacity="0.8">채널 B — 입구 막힘</text><rect x="152" y="125.2" width="16" height="27" rx="1" fill="currentColor" stroke="currentColor" stroke-width="0"/><text x="325" y="143.2" font-size="10" text-anchor="middle" fill="currentColor" opacity="0.8">채널 A — 출구 막힘 → 배기가 벽을 통과</text><rect x="472" y="156.8" width="16" height="27" rx="1" fill="currentColor" stroke="currentColor" stroke-width="0"/><rect x="172" y="159.8" width="296" height="7" fill="var(--fig-accent, #c4400c)" opacity="0.55" rx="2"/><text x="325" y="178.8" font-size="10" text-anchor="middle" fill="currentColor" opacity="0.8">채널 B — 입구 막힘</text><rect x="152" y="188.4" width="16" height="27" rx="1" fill="currentColor" stroke="currentColor" stroke-width="0"/><text x="325" y="206.4" font-size="10" text-anchor="middle" fill="currentColor" opacity="0.8">채널 A — 출구 막힘 → 배기가 벽을 통과</text><line x1="72" y1="140" x2="146" y2="140" stroke="currentColor" stroke-width="2.2" marker-end="url(#arr)"/><text x="72" y="128" font-size="10.5" text-anchor="start" fill="currentColor" opacity="1.0">배기 유입</text><text x="72" y="168" font-size="10" text-anchor="start" fill="currentColor" opacity="0.65">PM 0.1㎛</text><line x1="494" y1="140" x2="568" y2="140" stroke="currentColor" stroke-width="2.2" marker-end="url(#arr)"/><text x="568" y="128" font-size="10.5" text-anchor="end" fill="currentColor" opacity="1.0">정화 배기</text><text x="568" y="168" font-size="10" text-anchor="end" fill="currentColor" opacity="0.65">포집률 90~99%</text><rect x="150" y="246" width="24" height="7" fill="var(--fig-accent, #c4400c)" opacity="0.55" rx="2"/><text x="182" y="253" font-size="10.5" text-anchor="start" fill="var(--fig-accent, #c4400c)" opacity="1.0" font-weight="600">PM 퇴적층</text><text x="320" y="280" font-size="10.5" text-anchor="middle" fill="currentColor" opacity="0.75">기공 10~20㎛ &gt; PM 입경 0.1㎛ 이지만, 확산·차단·관성충돌로 포집된다</text></svg>
